<svg version="1.1" id="Layer_1" xmlns="http://www.w3.org/2000/svg" xmlns:xlink="http://www.w3.org/1999/xlink"
	 width="100%" viewBox="100 140 570 400"  xml:space="preserve" >

<path fill="#f7f6f6" opacity="1.000000" stroke="none" 
	d="
M498.657349,503.981323 
	C502.968262,497.821899 508.874664,495.734497 515.717957,495.648682 
	C524.040588,495.544312 530.571655,488.907684 530.619141,480.483978 
	C530.647583,475.435547 527.224976,471.561066 521.349731,470.355865 
	C512.393311,468.518616 503.346191,467.138611 494.913422,463.267090 
	C487.201935,459.726654 480.601440,454.621338 474.874725,448.570831 
	C470.007843,443.428741 464.588470,442.765625 458.093994,443.766418 
	C436.923004,447.028961 417.664581,455.823212 398.170135,463.985535 
	C377.743866,472.537994 357.337433,481.096497 335.250793,484.690826 
	C322.869812,486.705688 320.181915,484.218231 323.324738,471.760315 
	C325.895721,461.569244 328.673248,451.516418 327.743561,440.817566 
	C326.849701,430.531616 322.994965,421.511993 316.906525,413.330994 
	C316.418671,412.675446 315.760498,412.121338 315.099365,411.630676 
	C314.761383,411.379791 314.241394,411.374115 313.689209,411.227173 
	C313.210480,413.723328 314.570343,415.559509 315.524048,417.392670 
	C323.891388,433.475922 324.620575,450.163208 319.534241,467.287537 
	C318.517426,470.710754 317.786255,474.184906 318.464294,477.616058 
	C319.599243,483.359741 318.090057,488.520660 315.776672,493.565613 
	C313.785706,497.907471 313.054169,502.387512 313.124786,507.146942 
	C313.356079,522.736938 309.471619,527.226929 293.914154,528.132629 
	C283.459442,528.741211 272.936981,528.840454 262.507599,527.187439 
	C255.169876,526.024353 253.192581,522.664246 255.757187,515.621887 
	C259.241516,506.054016 271.322876,500.242432 282.728394,502.740051 
	C284.574402,503.144318 286.637299,503.204346 288.550537,505.042206 
	C284.559326,507.867706 278.869110,507.810669 276.873444,512.892029 
	C276.164215,514.697876 277.430206,515.986084 278.042786,517.783997 
	C281.238037,508.458344 288.833099,505.700836 297.868896,504.312408 
	C292.746643,501.832581 286.874573,502.523804 283.130768,497.779724 
	C286.716431,495.034271 290.923523,495.530762 294.577759,493.471405 
	C291.810486,490.488525 287.188141,491.458710 284.671906,488.562408 
	C285.835297,485.892181 288.887085,487.241394 290.359650,485.210327 
	C287.923828,483.081268 283.884766,482.922974 281.819641,479.095062 
	C286.729584,477.385193 291.356567,475.773865 296.480164,473.989563 
	C291.854126,471.013580 286.526123,470.619049 281.455078,466.960968 
	C287.067902,464.944336 292.543854,464.996918 297.899902,461.296570 
	C289.544312,458.962860 282.253632,456.481232 277.742462,449.130981 
	C273.502960,442.223358 272.405060,434.409271 270.421051,426.377655 
	C266.715271,428.911346 269.370209,432.665314 267.406982,434.891113 
	C265.284729,435.763000 265.885437,433.012299 264.430420,432.872314 
	C264.346375,433.306000 264.189850,433.746307 264.186310,434.187866 
	C264.141632,439.756653 266.625275,444.535431 269.243927,449.156738 
	C278.179718,464.926422 278.046936,481.176483 272.333588,497.850952 
	C271.832092,499.314514 270.978729,499.907654 269.680176,500.476318 
	C255.105194,506.859161 254.314743,507.820312 250.729736,523.049316 
	C241.938690,524.739075 232.980804,524.357483 224.027847,523.861511 
	C220.208893,523.650024 216.393311,523.304688 212.590988,522.885742 
	C208.191895,522.401001 206.741165,519.760376 207.276321,515.537720 
	C207.984116,509.952576 210.805222,505.907104 215.760605,503.386444 
	C221.555161,500.438904 227.684494,499.397369 234.177994,500.240875 
	C239.480698,500.929779 241.061005,499.858307 243.384857,494.417023 
	C240.023972,492.439789 236.815796,490.137299 237.286560,485.481049 
	C239.269409,484.104767 241.825134,485.124298 243.594330,483.343140 
	C243.468567,481.374023 241.493134,481.117920 240.293442,480.193054 
	C237.845200,478.305664 235.143463,476.020020 235.165207,473.112946 
	C235.200134,468.445984 232.270538,466.333069 229.416702,463.831757 
	C218.113785,453.924896 207.544632,443.383728 198.956711,430.914124 
	C186.161346,412.335327 183.020340,392.064667 186.081619,370.000793 
	C189.745575,343.593262 195.647873,317.708252 202.037872,291.889160 
	C203.332047,286.660004 203.193268,281.272430 202.576126,275.985291 
	C201.865738,269.899170 198.032623,266.016724 192.310165,264.354645 
	C187.197861,262.869781 181.877502,262.392181 176.523590,262.293518 
	C167.043549,262.118835 157.545593,261.883636 148.298096,259.456268 
	C137.252625,256.556885 127.737701,251.449677 120.512405,242.077377 
	C117.481560,238.145935 112.593864,235.785919 109.951805,231.109802 
	C104.481934,221.428757 106.020348,217.223465 116.605652,213.711319 
	C132.412369,208.466690 148.472061,204.096130 164.508438,199.643356 
	C172.759018,197.352463 180.859436,194.679657 187.111008,188.500778 
	C196.363495,179.355896 206.450836,178.360641 217.534546,184.759186 
	C218.244171,185.168839 218.991272,185.513550 219.825317,185.942093 
	C218.341232,181.956512 218.341232,181.956512 206.113251,174.979980 
	C215.074051,169.723175 224.575394,166.615707 233.971695,163.198822 
	C218.161499,161.393646 203.921173,164.723068 192.428711,176.366028 
	C186.312057,182.562820 179.963806,188.381821 172.285706,192.604889 
	C171.144348,193.232651 170.232590,194.362839 168.396866,194.063950 
	C169.177170,189.962982 169.872604,185.851730 170.769638,181.784958 
	C171.223129,179.729019 172.488281,178.250473 174.724365,177.749329 
	C177.361008,177.158386 177.160690,179.861984 178.349991,180.896286 
	C178.730408,180.663208 179.213501,180.528488 179.244278,180.325256 
	C180.894455,169.428757 190.486938,167.098495 198.305862,163.953522 
	C222.053116,154.401825 246.223846,153.647095 270.313690,163.210846 
	C273.383789,164.429703 276.361786,165.933472 279.610962,168.945084 
	C271.597626,169.624405 264.348145,170.238968 257.384308,170.829315 
	C256.676971,172.987793 257.745636,173.963791 258.423004,175.066650 
	C265.751495,186.998322 267.483429,199.613724 262.635284,212.839630 
	C259.484833,221.434219 255.651413,229.783157 252.629211,238.418976 
	C247.676361,252.571594 247.510345,266.802887 253.316956,280.839539 
	C258.386932,293.095490 270.057526,298.961670 282.972717,296.140625 
	C294.224365,293.682983 303.154510,287.714478 310.299164,278.885010 
	C320.093140,266.781433 325.798676,252.633255 330.033356,237.684082 
	C328.781586,239.997833 327.547760,242.321533 326.272949,244.622528 
	C324.981781,246.953186 323.658844,249.266403 322.334625,251.578552 
	C316.024445,262.596405 309.395325,273.384460 299.338257,281.507202 
	C292.976440,286.645416 285.854462,290.102325 277.509033,290.285309 
	C263.352112,290.595764 258.104218,278.501221 258.990784,268.758850 
	C260.019226,257.457794 265.355347,247.857285 270.789093,238.279388 
	C272.338531,235.548264 273.976715,232.855591 274.734283,228.802307 
	C268.852814,234.090057 265.922333,240.832047 260.449677,245.702026 
	C269.842285,222.638641 280.442108,199.816498 263.389374,175.924698 
	C280.126190,169.435501 297.820892,172.171875 307.235657,186.108154 
	C312.138123,193.365128 318.147614,199.473816 325.250153,204.625488 
	C334.417999,211.275208 339.642029,221.137482 345.157745,230.595428 
	C347.837463,235.190353 346.826172,240.470261 344.026276,244.905899 
	C336.914429,256.172699 329.741577,267.411072 322.220245,278.405792 
	C316.997498,286.040436 310.315521,292.382202 302.070648,296.759125 
	C298.452240,298.679993 298.189850,300.953888 299.559265,304.456940 
	C304.296051,316.573730 314.168457,322.605408 325.577240,326.873993 
	C338.639404,331.761230 352.313995,333.533813 366.104340,334.684906 
	C390.788177,336.745239 415.280090,334.351105 439.809753,331.904053 
	C457.344299,330.154846 474.918427,328.200775 492.588806,328.774200 
	C518.886475,329.627686 544.181335,334.352081 566.800354,348.924530 
	C584.472473,360.309967 596.981079,376.101654 605.172974,395.161682 
	C617.818420,424.583740 632.175293,453.098083 648.108398,480.863251 
	C653.418274,490.116364 657.464966,500.004700 659.799622,510.500610 
	C660.307678,512.784485 660.727295,515.057434 659.601868,517.490051 
	C655.588074,517.765320 652.567139,515.459839 649.917236,513.136597 
	C630.655029,496.249451 615.187378,476.836853 609.593506,451.042603 
	C608.911926,447.899597 607.854248,444.694275 605.415710,442.660706 
	C598.857727,437.191772 597.244568,429.544098 595.687134,421.880890 
	C594.199463,414.560974 593.064148,407.169067 591.794189,399.805328 
	C588.665649,381.664459 578.652466,368.977234 561.225403,362.245026 
	C563.442322,364.250671 565.659363,366.256226 567.876221,368.261963 
	C580.451294,379.639557 588.055115,393.227966 587.423035,410.761139 
	C587.196411,417.046326 586.682190,423.406586 588.353210,429.650604 
	C589.645752,434.480560 591.743896,438.742767 596.180969,441.375885 
	C604.103271,446.077179 606.997009,453.140411 606.357849,462.052002 
	C605.289795,476.943054 607.434021,491.600220 609.751038,506.236511 
	C611.470703,517.099060 607.584534,522.642456 596.647400,524.444763 
	C585.857788,526.222717 575.048584,525.549866 564.321472,523.893311 
	C558.094360,522.931702 556.118958,518.833557 558.108093,511.899811 
	C559.867676,505.765930 564.532593,502.913055 570.277283,501.229218 
	C579.194885,498.615356 583.332031,492.059814 581.414856,482.844879 
	C579.424072,473.275726 573.907288,466.566437 564.051086,464.285400 
	C554.829346,462.151276 545.443481,460.822449 536.858704,456.316498 
	C528.916321,452.147705 522.173096,446.580963 515.885742,440.327881 
	C508.402527,432.885559 499.974182,427.258270 489.164459,425.883240 
	C480.193390,424.742096 471.763947,426.771667 462.358337,429.695068 
	C468.134399,429.695068 472.836761,429.884155 477.519135,429.658325 
	C489.800323,429.066101 500.331787,433.378998 508.538513,442.108917 
	C521.689148,456.097961 537.808533,463.671539 556.416931,466.898621 
	C566.395142,468.629089 568.216003,473.486877 561.634521,481.218262 
	C555.973877,487.867950 552.441040,495.360168 550.254883,503.711243 
	C547.601746,513.845764 543.518311,517.067444 533.276245,518.372742 
	C524.790588,519.454102 516.370911,519.253052 507.878571,518.417542 
	C497.700104,517.416077 495.467377,514.307800 498.657349,503.981323 
M210.209961,402.804565 
	C223.025192,382.445404 217.281876,361.518524 212.751465,339.180664 
	C209.942490,344.449066 210.882538,348.928314 209.825104,352.996918 
	C209.349823,353.020569 208.874527,353.044220 208.399231,353.067871 
	C207.718201,341.758850 207.037170,330.449799 206.298950,318.191162 
	C205.773270,319.719177 205.531754,320.315002 205.361771,320.930634 
	C201.019653,336.656769 198.760925,352.781799 196.335922,368.865204 
	C195.026428,377.550293 193.440002,386.259033 194.770981,395.122314 
	C197.576172,413.802734 207.853470,428.260773 220.841293,441.163940 
	C222.048294,442.363129 223.107803,444.085938 225.363663,443.807678 
	C225.858932,441.399170 224.052338,440.125732 222.901733,438.644562 
	C217.684814,431.929138 212.811142,425.009735 209.085831,417.323273 
	C206.756821,412.517792 205.939453,407.879181 210.209961,402.804565 
M533.118103,445.417297 
	C538.740906,448.842407 544.741943,451.175323 552.131592,452.150513 
	C541.146118,446.258972 534.259583,439.337433 528.232361,428.982300 
	C523.765015,421.307281 520.784485,413.020691 517.615234,404.790253 
	C515.443726,399.151062 513.541992,393.365356 510.001404,388.333252 
	C508.856720,410.674866 512.681274,431.026215 533.118103,445.417297 
M246.639633,394.242249 
	C248.653183,391.814789 250.590332,389.318756 252.695160,386.973206 
	C258.175720,380.865845 263.048676,374.396851 265.189789,366.298950 
	C265.741791,364.211273 266.738434,361.974518 264.742401,359.522217 
	C260.113953,364.942505 254.959320,369.348206 249.989380,373.948639 
	C245.371872,378.222839 242.005875,383.386963 240.227249,389.337280 
	C238.733871,394.333374 236.720734,399.607056 240.412567,405.328857 
	C242.555405,401.441772 244.379745,398.132446 246.639633,394.242249 
M204.629135,202.476639 
	C206.303436,201.736969 207.977737,200.997299 209.652039,200.257645 
	C204.952850,200.423096 200.773361,199.702850 196.749451,197.922791 
	C194.771652,197.047852 193.182907,197.411057 192.047150,199.294281 
	C191.276520,200.572052 190.242889,201.949921 191.423630,203.402161 
	C192.939514,205.266586 195.042984,206.170425 197.548874,206.437546 
	C197.844604,202.027222 201.322525,203.125687 204.629135,202.476639 
M114.910744,217.031967 
	C113.781776,217.780701 111.958611,217.935211 112.331337,220.145401 
	C116.269249,222.339218 119.919609,221.916504 123.596901,219.199539 
	C121.372162,216.104462 118.590576,215.960159 114.910744,217.031967 
M577.599121,513.691406 
	C578.016174,514.556702 578.433228,515.421997 579.192322,516.996887 
	C580.775269,512.617249 581.677124,508.673431 584.499939,505.644409 
	C580.783020,506.933319 577.753967,508.739227 577.599121,513.691406 
M266.677460,509.653625 
	C264.613617,511.330811 263.664795,513.355835 264.698547,516.510864 
	C266.474243,513.460144 268.025726,510.794617 270.189758,507.076752 
	C268.497101,508.318878 267.838104,508.802490 266.677460,509.653625 
M192.205780,269.656189 
	C196.516571,273.102509 197.600006,277.584076 197.577469,282.375305 
	C197.552261,287.726074 196.559647,292.980347 194.886185,298.053925 
	C193.177872,303.233215 188.110001,306.312103 183.751770,305.083557 
	C179.838303,303.980377 177.703674,299.286346 178.910980,293.827728 
	C179.408569,291.577881 180.312241,289.375610 181.314392,287.287628 
	C184.200684,281.273987 186.428223,275.050995 187.459778,268.636627 
	C189.418259,267.661438 190.589600,268.840393 192.205780,269.656189 
z"/>

</svg>